<svg width="24" height="24" viewBox="0 0 24 24" fill="none" xmlns="http://www.w3.org/2000/svg">
<path d="M20.25 3.75H3.75C3.35218 3.75 2.97064 3.90804 2.68934 4.18934C2.40804 4.47064 2.25 4.85218 2.25 5.25V18.75C2.25 19.1478 2.40804 19.5294 2.68934 19.8107C2.97064 20.092 3.35218 20.25 3.75 20.25H20.25C20.6478 20.25 21.0294 20.092 21.3107 19.8107C21.592 19.5294 21.75 19.1478 21.75 18.75V5.25C21.75 4.85218 21.592 4.47064 21.3107 4.18934C21.0294 3.90804 20.6478 3.75 20.25 3.75ZM19.2806 8.03063L10.2806 17.0306C10.211 17.1004 10.1283 17.1557 10.0372 17.1934C9.94616 17.2312 9.84856 17.2506 9.75 17.2506C9.65144 17.2506 9.55384 17.2312 9.46279 17.1934C9.37175 17.1557 9.28903 17.1004 9.21937 17.0306L5.46938 13.2806C5.32864 13.1399 5.24958 12.949 5.24958 12.75C5.24958 12.551 5.32864 12.3601 5.46938 12.2194C5.61011 12.0786 5.80098 11.9996 6 11.9996C6.19902 11.9996 6.38989 12.0786 6.53063 12.2194L9.75 15.4397L18.2194 6.96937C18.3601 6.82864 18.551 6.74958 18.75 6.74958C18.949 6.74958 19.1399 6.82864 19.2806 6.96937C19.4214 7.11011 19.5004 7.30098 19.5004 7.5C19.5004 7.69902 19.4214 7.88989 19.2806 8.03063Z" fill="#15616D"/>
</svg>
