<svg width="24" height="24" viewBox="0 0 24 24" fill="none" xmlns="http://www.w3.org/2000/svg">
<path d="M22.95 14.1C22.8712 14.1591 22.7816 14.2021 22.6862 14.2265C22.5908 14.251 22.4915 14.2564 22.394 14.2425C22.2965 14.2285 22.2027 14.1955 22.1179 14.1454C22.0332 14.0952 21.9591 14.0288 21.9 13.95C21.448 13.3424 20.8596 12.8494 20.1822 12.5107C19.5048 12.172 18.7574 11.9971 18 12C17.8526 12 17.7083 11.9565 17.5855 11.875C17.4626 11.7934 17.3664 11.6775 17.3091 11.5416C17.2702 11.4493 17.2501 11.3502 17.2501 11.25C17.2501 11.1499 17.2702 11.0507 17.3091 10.9585C17.3664 10.8226 17.4626 10.7066 17.5855 10.6251C17.7083 10.5435 17.8526 10.5 18 10.5C18.4209 10.5 18.8332 10.3819 19.1903 10.1593C19.5474 9.93662 19.8349 9.61828 20.0201 9.24043C20.2054 8.86257 20.2809 8.44034 20.2382 8.0217C20.1955 7.60305 20.0363 7.20477 19.7786 6.8721C19.5209 6.53942 19.175 6.28569 18.7803 6.13972C18.3856 5.99374 17.9579 5.96138 17.5458 6.04631C17.1336 6.13124 16.7535 6.33005 16.4487 6.62016C16.1439 6.91027 15.9265 7.28006 15.8213 7.68751C15.7967 7.78293 15.7535 7.87256 15.6942 7.95128C15.635 8.03001 15.5608 8.0963 15.4759 8.14635C15.391 8.19641 15.2971 8.22926 15.1995 8.24302C15.102 8.25679 15.0026 8.2512 14.9072 8.22658C14.8118 8.20195 14.7222 8.15878 14.6435 8.09952C14.5647 8.04026 14.4984 7.96607 14.4484 7.88119C14.3983 7.79631 14.3655 7.7024 14.3517 7.60483C14.338 7.50726 14.3435 7.40793 14.3682 7.31251C14.5142 6.7475 14.7901 6.22436 15.1738 5.78472C15.5576 5.34508 16.0387 5.00108 16.5788 4.78009C17.119 4.5591 17.7032 4.46722 18.2851 4.51176C18.867 4.5563 19.4304 4.73603 19.9306 5.03665C20.4308 5.33727 20.8539 5.75048 21.1663 6.24341C21.4787 6.73633 21.6718 7.29536 21.7301 7.87602C21.7884 8.45668 21.7104 9.04294 21.5023 9.58815C21.2942 10.1334 20.9617 10.6225 20.5313 11.0166C21.5511 11.4581 22.4377 12.1588 23.1028 13.0491C23.1619 13.1281 23.2049 13.2179 23.2292 13.3136C23.2535 13.4092 23.2587 13.5086 23.2445 13.6062C23.2303 13.7039 23.197 13.7977 23.1465 13.8825C23.0959 13.9672 23.0292 14.0411 22.95 14.1ZM17.8988 19.875C17.9531 19.9604 17.9895 20.0558 18.0059 20.1556C18.0223 20.2555 18.0184 20.3576 17.9943 20.4558C17.9703 20.5541 17.9266 20.6464 17.8659 20.7273C17.8052 20.8083 17.7288 20.8761 17.6412 20.9267C17.5536 20.9773 17.4567 21.0097 17.3563 21.0219C17.2559 21.0341 17.154 21.0259 17.0569 20.9977C16.9597 20.9695 16.8693 20.9219 16.791 20.8579C16.7127 20.7939 16.6482 20.7146 16.6013 20.625C16.1288 19.825 15.456 19.162 14.6491 18.7015C13.8422 18.2409 12.9291 17.9986 12 17.9986C11.0709 17.9986 10.1579 18.2409 9.35102 18.7015C8.54412 19.162 7.87125 19.825 7.39879 20.625C7.3519 20.7146 7.28737 20.7939 7.20908 20.8579C7.13078 20.9219 7.04034 20.9695 6.94319 20.9977C6.84605 21.0259 6.7442 21.0341 6.64379 21.0219C6.54338 21.0097 6.44647 20.9773 6.35889 20.9267C6.27132 20.8761 6.19489 20.8083 6.1342 20.7273C6.07352 20.6464 6.02983 20.5541 6.00576 20.4558C5.9817 20.3576 5.97775 20.2555 5.99417 20.1556C6.01059 20.0558 6.04702 19.9604 6.10129 19.875C6.82841 18.6257 7.9371 17.6425 9.26441 17.07C8.51753 16.4982 7.96863 15.7067 7.69485 14.8067C7.42108 13.9068 7.4362 12.9437 7.73808 12.0528C8.03997 11.1619 8.61346 10.388 9.37792 9.8399C10.1424 9.29178 11.0594 8.99701 12 8.99701C12.9407 8.99701 13.8577 9.29178 14.6222 9.8399C15.3866 10.388 15.9601 11.1619 16.262 12.0528C16.5639 12.9437 16.579 13.9068 16.3052 14.8067C16.0315 15.7067 15.4825 16.4982 14.7357 17.07C16.063 17.6425 17.1717 18.6257 17.8988 19.875ZM12 16.5C12.5934 16.5 13.1734 16.3241 13.6667 15.9944C14.1601 15.6648 14.5446 15.1962 14.7717 14.6481C14.9987 14.0999 15.0582 13.4967 14.9424 12.9147C14.8266 12.3328 14.5409 11.7983 14.1214 11.3787C13.7018 10.9591 13.1673 10.6734 12.5853 10.5577C12.0034 10.4419 11.4002 10.5013 10.852 10.7284C10.3038 10.9554 9.83528 11.34 9.50563 11.8333C9.17599 12.3267 9.00004 12.9067 9.00004 13.5C9.00004 14.2957 9.31611 15.0587 9.87872 15.6213C10.4413 16.1839 11.2044 16.5 12 16.5ZM6.75004 11.25C6.75004 11.0511 6.67102 10.8603 6.53037 10.7197C6.38972 10.579 6.19895 10.5 6.00004 10.5C5.57922 10.5 5.16685 10.3819 4.80976 10.1593C4.45267 9.93662 4.16518 9.61828 3.97994 9.24043C3.79471 8.86257 3.71915 8.44034 3.76185 8.0217C3.80455 7.60305 3.9638 7.20477 4.22152 6.8721C4.47923 6.53942 4.82507 6.28569 5.21976 6.13972C5.61445 5.99374 6.04216 5.96138 6.45432 6.04631C6.86648 6.13124 7.24656 6.33005 7.55139 6.62016C7.85622 6.91027 8.07359 7.28006 8.17879 7.68751C8.22852 7.88021 8.35276 8.04526 8.52418 8.14635C8.6956 8.24745 8.90016 8.2763 9.09285 8.22658C9.28555 8.17685 9.4506 8.05261 9.55169 7.88119C9.65279 7.70977 9.68164 7.50521 9.63192 7.31251C9.48589 6.7475 9.21002 6.22436 8.82624 5.78472C8.44246 5.34508 7.96137 5.00108 7.42125 4.78009C6.88112 4.5591 6.29688 4.46722 5.715 4.51176C5.13312 4.5563 4.56967 4.73603 4.06947 5.03665C3.56928 5.33727 3.14614 5.75048 2.83375 6.24341C2.52135 6.73633 2.32831 7.29536 2.26998 7.87602C2.21165 8.45668 2.28965 9.04294 2.49777 9.58815C2.70589 10.1334 3.03838 10.6225 3.46879 11.0166C2.44999 11.4586 1.56446 12.1592 0.90004 13.0491C0.780569 13.2082 0.729204 13.4083 0.757247 13.6053C0.785289 13.8023 0.890442 13.9801 1.04957 14.0995C1.2087 14.219 1.40877 14.2704 1.60577 14.2423C1.80278 14.2143 1.98057 14.1091 2.10004 13.95C2.55209 13.3424 3.14049 12.8494 3.81788 12.5107C4.49526 12.172 5.24271 11.9971 6.00004 12C6.19895 12 6.38972 11.921 6.53037 11.7803C6.67102 11.6397 6.75004 11.4489 6.75004 11.25Z" fill="#E6E8E9"/>
</svg>
