<svg width="24" height="24" viewBox="0 0 24 24" fill="none" xmlns="http://www.w3.org/2000/svg">
<path d="M20.0307 17.0306L17.0307 20.0306C16.89 20.1713 16.6991 20.2504 16.5001 20.2504C16.3011 20.2504 16.1102 20.1713 15.9695 20.0306C15.8287 19.8899 15.7497 19.699 15.7497 19.5C15.7497 19.301 15.8287 19.1101 15.9695 18.9694L17.6898 17.25H4.5001C4.30119 17.25 4.11042 17.171 3.96977 17.0303C3.82912 16.8897 3.7501 16.6989 3.7501 16.5C3.7501 16.3011 3.82912 16.1103 3.96977 15.9697C4.11042 15.829 4.30119 15.75 4.5001 15.75H17.6898L15.9695 14.0306C15.8287 13.8899 15.7497 13.699 15.7497 13.5C15.7497 13.301 15.8287 13.1101 15.9695 12.9694C16.1102 12.8286 16.3011 12.7496 16.5001 12.7496C16.6991 12.7496 16.89 12.8286 17.0307 12.9694L20.0307 15.9694C20.1005 16.039 20.1558 16.1217 20.1935 16.2128C20.2313 16.3038 20.2507 16.4014 20.2507 16.5C20.2507 16.5986 20.2313 16.6961 20.1935 16.7872C20.1558 16.8782 20.1005 16.961 20.0307 17.0306ZM6.96948 11.0306C7.11021 11.1713 7.30108 11.2504 7.5001 11.2504C7.69912 11.2504 7.89 11.1713 8.03073 11.0306C8.17146 10.8899 8.25052 10.699 8.25052 10.5C8.25052 10.301 8.17146 10.1101 8.03073 9.96936L6.31041 8.24999H19.5001C19.699 8.24999 19.8898 8.17097 20.0304 8.03032C20.1711 7.88967 20.2501 7.6989 20.2501 7.49999C20.2501 7.30108 20.1711 7.11031 20.0304 6.96966C19.8898 6.82901 19.699 6.74999 19.5001 6.74999H6.31041L8.03073 5.03061C8.17146 4.88988 8.25052 4.69901 8.25052 4.49999C8.25052 4.30097 8.17146 4.1101 8.03073 3.96936C7.89 3.82863 7.69912 3.74957 7.5001 3.74957C7.30108 3.74957 7.11021 3.82863 6.96948 3.96936L3.96948 6.96936C3.89974 7.03902 3.84443 7.12174 3.80668 7.21278C3.76894 7.30383 3.74951 7.40143 3.74951 7.49999C3.74951 7.59855 3.76894 7.69615 3.80668 7.7872C3.84443 7.87824 3.89974 7.96096 3.96948 8.03061L6.96948 11.0306Z" fill="#E6E8E9"/>
</svg>
